<!DOCTYPE svg PUBLIC "-//W3C//DTD SVG 1.1//EN" "http://www.w3.org/Graphics/SVG/1.1/DTD/svg11.dtd">
<!-- Uploaded to: SVG Repo, www.svgrepo.com, Transformed by: SVG Repo Mixer Tools -->
<svg version="1.1" id="Layer_1" xmlns="http://www.w3.org/2000/svg" xmlns:xlink="http://www.w3.org/1999/xlink" viewBox="0 0 512 512" xml:space="preserve" width="64px" height="64px" fill="#000000">
<g id="SVGRepo_bgCarrier" stroke-width="0"/>
<g id="SVGRepo_tracerCarrier" stroke-linecap="round" stroke-linejoin="round"/>
<g id="SVGRepo_iconCarrier"> <g> <path style="fill:#3E3D43;" d="M289.393,77.346l74.821-70.67C368.519,2.371,374.249,0,380.347,0s11.829,2.371,16.135,6.677 c4.31,4.31,6.683,10.04,6.683,16.135s-2.373,11.825-6.683,16.135l-73.697,71.793L289.393,77.346z"/> <path style="fill:#3E3D43;" d="M298.329,155.818l2.193-45.636h111.307c12.582,0,22.818,10.236,22.818,22.818 s-10.236,22.818-22.818,22.818H298.329z"/> </g> <path style="fill:#ACABB1;" d="M54.599,507.538l-9.996-79.971c-0.38-3.04,1.99-5.726,5.054-5.726h67.635 c3.064,0,5.435,2.686,5.054,5.726l-9.996,79.971c-0.318,2.549-2.485,4.462-5.054,4.462H59.654 C57.085,512,54.918,510.088,54.599,507.538z"/> <path style="fill:#898790;" d="M88.145,503.418l-8.82-70.564c-0.731-5.848,3.829-11.013,9.722-11.013H49.657 c-3.064,0-5.434,2.686-5.054,5.726l9.996,79.971c0.318,2.549,2.485,4.462,5.054,4.462h38.214 C92.926,512,88.758,508.321,88.145,503.418z"/> <g> <path style="fill:#3E3D43;" d="M89.04,289.386c-37.132,0-67.341-30.209-67.341-67.341v-66.784 c0-37.132,30.209-67.341,67.341-67.341h77.915v34.505H89.04c-18.106,0-32.836,14.729-32.836,32.836v66.784 c0,18.106,14.729,32.836,32.836,32.836h132.928l0.64,34.505H89.04z"/> <rect x="155.83" y="76.79" style="fill:#3E3D43;" width="111.307" height="45.636"/> </g> <path style="fill:#AC2201;" d="M367.757,254.804l-4.128-7.396c-2.691-4.822-5.79-9.415-9.408-13.587 c-11.3-13.031-25.65-22.867-42.012-28.722v-79.564c0-2.017-1.648-3.644-3.665-3.617l-60.661,0.794 c-1.979,0.026-3.571,1.638-3.571,3.617v78.771c-39.965,14.302-66.784,52.372-66.784,94.861v208.422c0,1.998,1.62,3.617,3.617,3.617 h194.23c1.998,0,3.617-1.62,3.617-3.617V299.96c0-9.942-1.451-19.704-4.324-29.142C372.973,265.242,370.599,259.894,367.757,254.804 z"/> <path style="fill:#891D00;" d="M210.365,492.689V299.96c0-42.489,26.819-80.56,66.784-94.861v-78.772 c0-1.979,1.591-3.591,3.57-3.616l15.977-0.208c-1.308-0.26-2.661-0.395-4.049-0.377l-44.763,0.585 c-1.979,0.026-3.571,1.638-3.571,3.617v78.771c-39.965,14.302-66.784,52.372-66.784,94.861v208.422c0,1.998,1.62,3.617,3.617,3.617 h48.529C219.01,512,210.365,503.355,210.365,492.689z"/> <path style="fill:#D8D7DA;" d="M370.809,260.27l-2.316-5.389h-43.37c-13.871,0-25.158,11.285-25.158,25.158v173.413 c0,13.871,11.285,25.158,25.158,25.158h53.87V299.961C378.995,286.265,376.241,272.91,370.809,260.27z"/> <path style="fill:#ACABB1;" d="M278.262,155.818c-30.995,0-56.21-25.215-56.21-56.21s25.215-56.21,56.21-56.21 s56.21,25.215,56.21,56.21S309.255,155.818,278.262,155.818z"/> <path style="fill:#D8D7DA;" d="M278.262,122.425c-12.582,0-22.818-10.236-22.818-22.818S265.68,76.79,278.262,76.79 s22.818,10.236,22.818,22.818S290.843,122.425,278.262,122.425z"/> <path style="fill:#3E3D43;" d="M65.456,422.954l1.461-10.171c4.729-32.909,33.38-57.726,66.645-57.726h289.398 c18.105,0,32.836-14.729,32.836-32.836c0-18.106-14.73-32.836-32.836-32.836h-45.374l-1.337-7.302 c-0.952-5.198-2.327-10.354-4.091-15.324l-4.213-11.881h55.013c37.132,0,67.341,30.209,67.341,67.341s-30.209,67.341-67.341,67.341 H133.562c-15.542,0-29.073,11.046-32.174,26.266l-1.453,7.126H65.456V422.954z"/> <path style="fill:#ACABB1;" d="M133.006,139.075V60.14c0-3.1,2.512-5.612,5.612-5.612h34.412c3.1,0,5.612,2.512,5.612,5.612v78.934 c0,3.1-2.512,5.612-5.612,5.612h-34.412C135.518,144.687,133.006,142.175,133.006,139.075z"/> <path style="fill:#898790;" d="M158.05,135.267V63.948c0-4.145,2.775-8.16,6.494-9.42c-1.083,0-2.056,0-3.113,0h-22.812 c-3.1,0-5.612,2.512-5.612,5.612v78.934c0,3.1,2.512,5.612,5.612,5.612h22.812c1.057,0,1.19,0,2.977,0 C160.689,143.427,158.05,139.412,158.05,135.267z"/> </g>
</svg>