<!DOCTYPE svg PUBLIC "-//W3C//DTD SVG 1.1//EN" "http://www.w3.org/Graphics/SVG/1.1/DTD/svg11.dtd">
<!-- Uploaded to: SVG Repo, www.svgrepo.com, Transformed by: SVG Repo Mixer Tools -->
<svg version="1.1" id="Layer_1" xmlns="http://www.w3.org/2000/svg" xmlns:xlink="http://www.w3.org/1999/xlink" viewBox="0 0 512 512" xml:space="preserve" width="64px" height="64px" fill="#000000">
<g id="SVGRepo_bgCarrier" stroke-width="0"/>
<g id="SVGRepo_tracerCarrier" stroke-linecap="round" stroke-linejoin="round"/>
<g id="SVGRepo_iconCarrier"> <rect x="185.172" y="411.168" style="fill:#FBA026;" width="106.433" height="44.814"/> <path style="fill:#EB4E49;" d="M238.392,500.797L238.392,500.797c-15.469,0-28.009-12.54-28.009-28.009v-16.805h56.018v16.805 C266.401,488.256,253.861,500.797,238.392,500.797z"/> <g> <path style="fill:#EFEFEF;" d="M358.687,121.86c-3.115,30.832-55.782,55.368-120.292,55.368s-117.177-24.536-120.292-55.368 c2.801-51.066,45.083-91.611,96.854-91.611h46.864C313.593,30.249,355.886,70.795,358.687,121.86z"/> <path style="fill:#EFEFEF;" d="M358.833,167.044v78.973c0,32.176-53.922,58.258-120.438,58.258s-120.438-26.082-120.438-58.258 v-78.973c0,32.176,53.922,58.258,120.438,58.258S358.833,199.221,358.833,167.044z"/> <path style="fill:#EFEFEF;" d="M358.833,294.092v20.077c0,53.575-43.436,97-97.011,97h-46.864c-53.575,0-97-43.425-97-97v-20.077 c0,32.176,53.922,58.258,120.438,58.258S358.833,326.268,358.833,294.092z"/> </g> <g> <path style="fill:#EB4E49;" d="M358.833,246.018v48.074c0,32.176-53.922,58.258-120.438,58.258s-120.438-26.082-120.438-58.258 v-48.074c0,32.176,53.922,58.258,120.438,58.258S358.833,278.194,358.833,246.018z"/> <path style="fill:#EB4E49;" d="M358.833,127.249v39.795c0,32.176-53.922,58.258-120.438,58.258s-120.438-26.082-120.438-58.258 v-39.795c0-1.804,0.045-3.608,0.146-5.389c3.115,30.832,55.782,55.368,120.292,55.368s117.177-24.536,120.292-55.368 C358.788,123.642,358.833,125.446,358.833,127.249z"/> </g> <path style="fill:#FBA026;" d="M452.379,266.643L452.379,266.643c-20.029,0-36.266-16.236-36.266-36.266v-32.969 c0-20.029,16.236-36.266,36.266-36.266l0,0c20.029,0,36.266,16.236,36.266,36.266v32.969 C488.643,250.407,472.407,266.643,452.379,266.643z"/> <g> <path style="fill:#231F20;" d="M464.63,151.552V68.025C464.63,30.516,434.114,0,396.604,0c-29.541,0-54.734,18.934-64.108,45.3 c-19.006-16.387-43.743-26.254-70.675-26.254h-46.864c-26.931,0-51.667,9.868-70.671,26.258C134.913,18.936,109.721,0,80.178,0 C42.669,0,12.153,30.516,12.153,68.025v138.857c0,18.17,7.075,35.253,19.924,48.101l72.985,72.985 c0.86,0.86,1.828,1.545,2.858,2.067c5.643,38.231,31.353,70.012,66.05,84.266v41.68c0,6.188,5.016,11.203,11.203,11.203h14.004 v5.602c0,21.622,17.591,39.212,39.212,39.212c21.622,0,39.212-17.591,39.212-39.212v-5.602h110.915 c41.39,0,75.063-33.673,75.063-75.063v-28.382c0-6.188-5.016-11.203-11.203-11.203c-6.188,0-11.204,5.016-11.204,11.203v28.382 c0,29.035-23.621,52.656-52.656,52.656h-85.707v-30.477c34.702-14.254,60.416-46.036,66.059-84.269 c1.026-0.522,1.992-1.205,2.85-2.064l56.659-56.659c7.047,4.148,15.247,6.538,23.998,6.538c26.175,0,47.469-21.294,47.469-47.469 V197.41C499.848,175.47,484.885,156.969,464.63,151.552z M129.161,206.616c5.465,4.246,11.882,8.172,19.194,11.709 c24.238,11.723,56.215,18.181,90.04,18.181s65.803-6.457,90.04-18.181c7.31-3.537,13.728-7.463,19.194-11.709v39.4 c0,22.256-44.861,47.055-109.234,47.055s-109.234-24.799-109.234-47.055L129.161,206.616L129.161,206.616z M238.395,214.099 c-64.373,0-109.234-24.799-109.234-47.055v-8.528v-0.001c6.013,4.685,13.164,8.973,21.367,12.762 c23.946,11.062,55.151,17.155,87.868,17.155s63.922-6.092,87.868-17.155c8.203-3.79,15.354-8.077,21.368-12.763l-0.001,0.002v8.528 C347.63,189.3,302.768,214.099,238.395,214.099z M214.958,41.453h46.864c45.233,0,82.658,35.093,85.622,80.067 c-3.177,21.644-47.245,44.505-109.048,44.505s-105.871-22.861-109.048-44.505C132.311,76.546,169.731,41.453,214.958,41.453z M47.921,239.139c-8.615-8.615-13.361-20.071-13.361-32.257V68.025c0-25.154,20.465-45.618,45.618-45.618 c24.468,0,44.492,19.366,45.566,43.575c-9.818,14.265-16.304,31.027-18.319,49.199c-0.427,1.185-0.671,178.911-0.671,178.911v3.88 L47.921,239.139z M255.196,472.788c0,9.266-7.539,16.805-16.805,16.805c-9.266,0-16.805-7.539-16.805-16.805v-5.602h33.611V472.788 z M280.404,444.779h-84.026V420.77c6.039,1.05,12.245,1.602,18.579,1.602h46.864c6.336,0,12.543-0.552,18.582-1.602v24.009H280.404 z M261.822,399.965h-46.864c-39.873,0-73.48-27.34-83.059-64.258c4.835,3.467,10.333,6.704,16.456,9.666 c24.238,11.723,56.215,18.181,90.04,18.181s65.803-6.457,90.04-18.181c6.124-2.962,11.621-6.198,16.456-9.665 C335.311,372.626,301.7,399.965,261.822,399.965z M238.395,341.147c-64.373,0-109.234-24.799-109.234-47.055v-8.502l-0.008-0.015 c5.47,4.252,11.884,8.183,19.202,11.723c24.238,11.723,56.215,18.181,90.04,18.181s65.803-6.457,90.04-18.181 c7.318-3.54,13.733-7.473,19.202-11.723l-0.008,0.015v8.502C347.63,316.348,302.768,341.147,238.395,341.147z M370.036,297.964 c0,0-0.244-181.598-0.671-182.783c-2.016-18.175-8.505-34.94-18.327-49.208c1.078-24.204,21.101-43.566,45.566-43.566 c25.154,0,45.618,20.464,45.618,45.618v83.02c-21.309,4.664-37.313,23.675-37.313,46.363v32.969c0,9.317,2.709,18.009,7.365,25.348 L370.036,297.964z M477.441,230.378c0,13.818-11.243,25.062-25.062,25.062c-13.818,0-25.062-11.243-25.062-25.062v-32.969 c0-13.818,11.243-25.062,25.062-25.062c13.819,0,25.062,11.243,25.062,25.062V230.378z"/> <path style="fill:#231F20;" d="M452.378,304.735c-6.188,0-11.204,5.016-11.204,11.203v1.12c0,6.188,5.016,11.203,11.204,11.203 c6.188,0,11.203-5.016,11.203-11.203v-1.12C463.581,309.751,458.565,304.735,452.378,304.735z"/> </g> </g>
</svg>